#!OML:ASF E:\Mandelcareful walks\Project 1\Capture day 1\Session 1\Subject1.ASF
:FULLY-SPECIFIED
:DEGREES
790
root 27.9437 15.6573 9.20809 -153.833 69.7974 201.159
lowerback 29.0329 4.0963 -7.78967
upperback 9.39591 4.13211 -1.55373
thorax -5.6784 2.43269 1.32484
lowerneck -26.5707 -5.22434 -7.42007
upperneck 15.5081 -4.96361 2.92369
head 9.47055 -2.41472 1.43867
rclavicle 4.6118e-014 -3.49861e-014
rhumerus -19.3858 12.4367 -84.3656
rradius 55.9855
rwrist -20.9288
rhand -15.7934 -22.6784
rfingers 7.12502
rthumb 10.3995 -52.4012
lclavicle 4.6118e-014 -3.49861e-014
lhumerus -13.8297 -2.54595 76.4073
lradius 50.5936
lwrist 32.2377
lhand -29.1461 -13.7664
lfingers 7.12502
lthumb -2.4928 16.1988
rfemur -25.2316 -21.7361 13.083
rtibia 74.4352
rfoot -8.7038 -2.35157
rtoes -9.22254
lfemur -40.4126 18.8288 -20.3669
ltibia 61.9381
lfoot -30.4558 9.99368
ltoes 19.072
791
root 28.0418 15.6521 9.10875 -153.711 70.1717 201.899
lowerback 29.1751 4.22019 -8.04246
upperback 9.57255 4.24623 -1.48004
thorax -5.56793 2.48824 1.50957
lowerneck -26.4089 -5.65442 -7.96422
upperneck 15.5887 -5.5739 3.82311
head 9.55066 -2.62791 1.74473
rclavicle -5.40694e-014 6.67916e-014
rhumerus -19.291 12.2878 -84.1075
rradius 55.941
rwrist -20.728
rhand -16.4543 -22.5285
rfingers 7.12502
rthumb 9.76182 -52.2823
lclavicle -5.40694e-014 6.67916e-014
lhumerus -13.8887 -2.47897 76.4166
lradius 49.9789
lwrist 30.9993
lhand -29.0765 -14.2523
lfingers 7.12502
lthumb -2.42556 15.7137
rfemur -26.6596 -20.6269 13.3897
rtibia 73.7301
rfoot -9.93464 -2.48721
rtoes -10.2337
lfemur -39.0565 18.9156 -20.0991
ltibia 61.9378
lfoot -31.2291 9.99892
ltoes 19.496
792
root 28.0983 15.6273 9.05315 -154.837 69.5225 200.711
lowerback 29.8679 3.99134 -8.19042
upperback 9.22315 3.80335 -1.35635
thorax -6.26533 2.28638 1.82986
lowerneck -26.0634 -6.03259 -8.00681
upperneck 15.8096 -6.13061 3.89568
head 9.61018 -2.88667 1.69011
rclavicle -1.43125e-014 -3.18055e-015
rhumerus -19.7348 12.0001 -83.9286
rradius 56.0145
rwrist -20.7062
rhand -16.5711 -22.9961
rfingers 7.12502
rthumb 9.64915 -52.7551
lclavicle -1.43125e-014 -3.18055e-015
lhumerus -14.3577 -2.65121 76.4972
lradius 49.4177
lwrist 30.1817
lhand -29.1963 -14.8043
lfingers 7.12502
lthumb -2.54131 15.1603
rfemur -28.876 -20.4967 13.9064
rtibia 72.8127
rfoot -10.9706 -3.07707
rtoes -10.9019
lfemur -38.8877 17.9675 -20.2906
ltibia 62.0833
lfoot -31.5559 10.0414
ltoes 19.8206
793
root 28.1649 15.6072 8.99188 -155.803 69.0884 199.86
lowerback 30.2032 3.80787 -8.28641
upperback 9.29517 3.54285 -1.2615
thorax -6.3224 2.16916 2.06897
lowerneck -26.6962 -6.40964 -8.33242
upperneck 16.4615 -6.57401 4.26494
head 10.003 -3.06128 1.78459
rclavicle 6.20208e-014 -6.67916e-014
rhumerus -19.6487 11.4549 -83.6277
rradius 56.0529
rwrist -20.5695
rhand -16.4285 -23.351
rfingers 7.12502
rthumb 9.78678 -53.1035
lclavicle 6.20208e-014 -6.67916e-014
lhumerus -14.2448 -2.7138 76.5401
lradius 48.9391
lwrist 29.2392
lhand -28.7517 -14.8373
lfingers 7.12502
lthumb -2.11193 15.132
rfemur -30.8894 -19.9802 14.3552
rtibia 71.4853
rfoot -11.8213 -3.9819
rtoes -4.45687
lfemur -38.4167 17.2719 -20.4122
ltibia 62.2556
lfoot -31.9496 10.0419
ltoes 20.0545
794
root 28.2425 15.5945 8.92183 -156.226 68.7071 199.612
lowerback 30.4266 3.63476 -8.22971
upperback 9.38337 3.35234 -1.11801
thorax -6.31283 2.08173 2.25877
lowerneck -27.1954 -6.58521 -8.42719
upperneck 17.0282 -6.76128 4.31074
head 10.3103 -3.14216 1.77255
rclavicle 1.27222e-014 -1.59028e-014
rhumerus -19.5408 11.1453 -83.1829
rradius 55.9727
rwrist -20.6617
rhand -16.2817 -23.4354
rfingers 7.12502
rthumb 9.92837 -53.1813
lclavicle 1.27222e-014 -1.59028e-014
lhumerus -14.3289 -2.78922 76.5798
lradius 48.6187
lwrist 28.5127
lhand -28.247 -14.8217
lfingers 7.12502
lthumb -1.6245 15.1519
rfemur -32.6469 -19.2718 14.9456
rtibia 69.7303
rfoot -12.8708 -5.06406
rtoes -2.53803
lfemur -37.8398 16.8028 -20.3487
ltibia 62.4961
lfoot -32.4584 9.89059
ltoes 20.2354
795
root 28.3427 15.5847 8.8391 -156.22 68.7225 199.835
lowerback 30.3178 3.60027 -8.16434
upperback 9.50362 3.36177 -1.08023
thorax -6.12595 2.0836 2.27033
lowerneck -27.3957 -6.65392 -8.59994
upperneck 17.451 -6.8088 4.41053
head 10.513 -3.16157 1.82236
rclavicle 2.38542e-015 2.54444e-014
rhumerus -19.444 10.8118 -82.819
rradius 55.7634
rwrist -20.9905
rhand -16.6115 -23.3814
rfingers 7.12502
rthumb 9.61016 -53.1423
lclavicle 2.38542e-015 2.54444e-014
lhumerus -14.3361 -3.12874 76.5378
lradius 48.1543
lwrist 28.1675
lhand -28.0437 -14.2167
lfingers 7.12502
lthumb -1.42808 15.7583
rfemur -34.1545 -18.2169 15.5093
rtibia 67.5839
rfoot -13.774 -5.88933
rtoes -7.33819
lfemur -37.0813 16.7997 -20.2419
ltibia 62.683
lfoot -33.0838 9.65621
ltoes 20.3372
796
root 28.4413 15.5774 8.80979 -154.086 67.9684 202.858
lowerback 30.784 3.59333 -7.61779
upperback 9.71172 3.56051 -0.42752
thorax -6.14683 2.18001 2.60513
lowerneck -27.5191 -6.44291 -8.48098
upperneck 17.8311 -6.46514 4.02027
head 10.6311 -3.04571 1.71964
rclavicle 2.78299e-014 1.90833e-014
rhumerus -19.3641 10.1718 -82.3666
rradius 55.5728
rwrist -20.9668
rhand -16.4101 -23.6125
rfingers 7.12502
rthumb 9.80455 -53.3642
lclavicle 2.78299e-014 1.90833e-014
lhumerus -14.223 -3.21355 76.7273
lradius 47.6417
lwrist 27.8555
lhand -28.0938 -13.5249
lfingers 7.12502
lthumb -1.47648 16.4498
rfemur -34.9788 -16.4243 17.6213
rtibia 65.0815
rfoot -14.5619 -7.15288
rtoes -10.1754
lfemur -36.1143 16.9156 -18.3373
ltibia 62.8824
lfoot -33.1305 9.03654
ltoes 20.3863
797
root 28.5345 15.5777 8.75075 -153.967 67.6805 203.315
lowerback 30.9785 3.57555 -7.52437
upperback 9.70062 3.56518 -0.248262
thorax -6.25782 2.18475 2.74196
lowerneck -27.3537 -6.00764 -7.98399
upperneck 18.2724 -5.8955 3.26756
head 10.6857 -2.85158 1.46977
rclavicle -2.38542e-015 -6.99722e-014
rhumerus -19.6318 9.48405 -82.0477
rradius 55.4304
rwrist -20.911
rhand -15.2759 -24.5908
rfingers 7.12502
rthumb 10.8986 -54.288
lclavicle -2.38542e-015 -6.99722e-014
lhumerus -14.4338 -3.26334 76.812
lradius 47.2799
lwrist 27.4036
lhand -27.9234 -13.6234
lfingers 7.12502
lthumb -1.3119 16.3523
rfemur -36.1374 -14.9993 18.357
rtibia 62.4916
rfoot -14.9025 -7.37448
rtoes -9.49397
lfemur -35.4115 16.8497 -17.887
ltibia 62.8974
lfoot -33.2044 8.89234
ltoes 19.8908
798
root 28.6161 15.5728 8.6833 -156.111 67.3994 201.016
lowerback 30.9899 3.41613 -8.00416
upperback 9.75089 3.23464 -0.345652
thorax -6.17546 2.02972 3.02856
lowerneck -27.6996 -5.61909 -7.73316
upperneck 18.903 -5.29749 2.72901
head 10.9201 -2.63074 1.33142
rclavicle -2.46493e-014 1.90833e-014
rhumerus -19.52 9.13413 -81.6318
rradius 55.1818
rwrist -21.2194
rhand -15.9112 -24.3236
rfingers 7.12502
rthumb 10.2858 -54.0521
lclavicle -2.46493e-014 1.90833e-014
lhumerus -14.483 -3.22698 76.8532
lradius 47.0209
lwrist 27.0505
lhand -27.6344 -13.7134
lfingers 7.12502
lthumb -1.03282 16.2639
rfemur -37.5688 -14.5271 17.9321
rtibia 59.8965
rfoot -14.8694 -6.67818
rtoes -10.311
lfemur -35.0124 16.3461 -18.7552
ltibia 62.8093
lfoot -33.2484 9.07195
ltoes 18.8265
799
root 28.6863 15.5555 8.62931 -159.437 66.6731 196.981
lowerback 31.5094 3.18729 -8.68623
upperback 9.04062 2.60722 -0.429205
thorax -6.50146 1.73927 3.22374
lowerneck -27.7877 -5.17532 -7.30059
upperneck 19.6563 -4.6944 2.11388
head 11.1565 -2.40978 1.14035
rclavicle -1.11319e-014 3.18055e-014
rhumerus -19.8003 8.59057 -81.3026
rradius 54.8128
rwrist -21.4302
rhand -16.3354 -24.2847
rfingers 7.12502
rthumb 9.87657 -54.033
lclavicle -1.11319e-014 3.18055e-014
lhumerus -14.7845 -3.61137 76.9
lradius 46.746
lwrist 26.8822
lhand -27.3309 -13.2299
lfingers 7.12502
lthumb -0.739648 16.7486
rfemur -39.488 -14.8896 17.0053
rtibia 57.3859
rfoot -14.5552 -5.55725
rtoes -12.824
lfemur -35.2663 15.3527 -20.4433
ltibia 62.6761
lfoot -32.8734 9.92748
ltoes 15.8946
800
root 28.7885 15.5496 8.56115 -161.303 66.5249 195.187
lowerback 31.023 3.15968 -9.01325
upperback 9.67319 2.59981 -0.715027
thorax -6.20098 1.73938 3.41604
lowerneck -28.2262 -4.51391 -6.61573
upperneck 20.3529 -3.72636 1.0429
head 11.4116 -2.06421 0.799044
rclavicle -2.78299e-014 7.4743e-014
rhumerus -19.615 7.55598 -80.9687
rradius 54.4818
rwrist -21.1324
rhand -16.4297 -24.4381
rfingers 7.12502
rthumb 9.78556 -54.1908
lclavicle -2.78299e-014 7.4743e-014
lhumerus -14.3437 -3.77251 76.9383
lradius 46.1957
lwrist 26.5092
lhand -27.1058 -12.4426
lfingers 7.12502
lthumb -0.522259 17.5365
rfemur -40.5324 -14.3284 16.5816
rtibia 54.7252
rfoot -14.2326 -4.14607
rtoes -16.0523
lfemur -34.5179 15.3371 -21.1882
ltibia 62.5556
lfoot -32.7927 10.5445
ltoes 12.9384
801
root 28.8939 15.5473 8.50682 -161.809 66.2164 194.918
lowerback 31.6203 3.19852 -9.11583
upperback 9.1211 2.50494 -0.577235
thorax -6.43613 1.7016 3.32362
lowerneck -28.2152 -3.55289 -5.51919
upperneck 21.4385 -2.45551 -0.287694
head 11.7408 -1.59283 0.350936
rclavicle -1.59028e-015 -4.77083e-014
rhumerus -20.2886 6.65246 -81.05
rradius 54.504
rwrist -20.8703
rhand -16.0678 -24.9554
rfingers 7.12502
rthumb 10.1347 -54.6914
lclavicle -1.59028e-015 -4.77083e-014
lhumerus -14.7566 -3.75502 76.7703
lradius 45.84
lwrist 26.1253
lhand -26.9954 -12.082
lfingers 7.12502
lthumb -0.415651 17.8974
rfemur -41.3723 -13.3574 16.8247
rtibia 51.9851
rfoot -13.8902 -2.75832
rtoes -19.0752
lfemur -33.5854 15.3427 -20.9625
ltibia 62.6138
lfoot -33.3753 9.31996
ltoes 14.9398
802
root 28.9927 15.5424 8.46693 -162.198 65.5091 194.493
lowerback 31.5266 3.0662 -8.95994
upperback 9.12892 2.4085 -0.469176
thorax -6.38691 1.65419 3.39373
lowerneck -28.5016 -2.77849 -4.84267
upperneck 22.5483 -1.23995 -1.50367
head 12.1825 -1.17022 -0.00554548
rclavicle 3.97569e-014 -3.49861e-014
rhumerus -20.5997 5.94382 -80.7598
rradius 54.4216
rwrist -21.2191
rhand -16.0683 -25.0828
rfingers 7.12502
rthumb 10.1343 -54.8187
lclavicle 3.97569e-014 -3.49861e-014
lhumerus -14.8119 -3.81278 76.8968
lradius 45.6361
lwrist 25.9826
lhand -26.9439 -12.3557
lfingers 7.12502
lthumb -0.365904 17.6238
rfemur -42.3023 -12.6296 17.1134
rtibia 49.1576
rfoot -13.1101 -1.60911
rtoes -21.6377
lfemur -33.0368 14.9541 -20.6767
ltibia 62.6899
lfoot -33.8697 7.61249
ltoes 18.3112
